<svg width="479" height="479" viewBox="0 0 479 479" fill="none" xmlns="http://www.w3.org/2000/svg">
<g clip-path="url(#clip0)">
<path d="M555.041 526.9L437.686 441.279L311.35 395.175L185.013 322.128L23.9496 358.651L176.631 457.445L75.7415 526.601L23.9496 358.651L-117.954 295.184L61.0721 228.723L-18.5616 137.114L75.7415 47.6007L-41.3141 -37.7212M460.438 137.114L620.903 156.214L460.438 137.114Z" stroke="#444444" stroke-width="0.5"/>
<path d="M221.537 541.869L176.631 457.445M-18.5615 137.114L141.903 156.274L233.512 228.723L361.046 295.184L184.714 321.828L60.7729 228.423L-18.5615 137.114Z" stroke="#444444" stroke-width="0.5"/>
<path d="M311.35 395.175L346.077 504.147L437.686 441.279L502.95 358.651L361.046 295.184L311.35 395.175ZM311.35 395.175L176.631 457.445L185.014 322.127L233.512 228.722L322.726 161.064L460.439 137.114L345.778 24.8481L221.537 62.8687L176.631 -21.5551L75.7417 47.6006L141.904 156.274L61.0723 228.722L23.9498 358.651L-41.314 441.279L76.041 526.9" stroke="#444444" stroke-width="0.5"/>
<path d="M233.512 228.723H61.0723M311.35 -83.825L346.377 25.4469L437.686 -37.7212L311.35 -83.825ZM361.046 295.184L322.726 161.064L141.904 156.274L221.537 62.8688L361.046 295.184ZM540.072 228.723L322.726 161.064L540.072 228.723Z" stroke="#444444" stroke-width="0.5"/>
<path d="M61.0723 228.722L-156.274 161.064M-132.923 25.1475L75.7417 47.6006L221.537 62.8687L322.726 161.064L345.778 24.8481L555.041 47.9L460.439 137.114L540.072 228.722L361.046 295.184L437.686 441.279L-132.923 25.1475ZM176.631 -21.555L345.778 24.8481L176.631 -21.555ZM346.077 504.147L176.631 457.445L346.077 504.147ZM23.9498 -120.349L76.0411 47.9L23.9498 -120.349Z" stroke="#444444" stroke-width="0.5"/>
<path d="M460.439 140.108C462.092 140.108 463.432 138.767 463.432 137.114C463.432 135.46 462.092 134.12 460.439 134.12C458.785 134.12 457.445 135.46 457.445 137.114C457.445 138.767 458.785 140.108 460.439 140.108Z" fill="#444444"/>
<path d="M322.726 164.058C324.38 164.058 325.72 162.717 325.72 161.064C325.72 159.41 324.38 158.07 322.726 158.07C321.073 158.07 319.732 159.41 319.732 161.064C319.732 162.717 321.073 164.058 322.726 164.058Z" fill="#444444"/>
<path d="M361.046 298.178C362.699 298.178 364.04 296.837 364.04 295.184C364.04 293.53 362.699 292.19 361.046 292.19C359.393 292.19 358.052 293.53 358.052 295.184C358.052 296.837 359.393 298.178 361.046 298.178Z" fill="#444444"/>
<path d="M437.686 444.273C439.34 444.273 440.68 442.932 440.68 441.279C440.68 439.625 439.34 438.285 437.686 438.285C436.033 438.285 434.692 439.625 434.692 441.279C434.692 442.932 436.033 444.273 437.686 444.273Z" fill="#444444"/>
<path d="M311.35 398.169C313.003 398.169 314.343 396.829 314.343 395.175C314.343 393.522 313.003 392.181 311.35 392.181C309.696 392.181 308.356 393.522 308.356 395.175C308.356 396.829 309.696 398.169 311.35 398.169Z" fill="#444444"/>
<path d="M185.014 325.121C186.667 325.121 188.008 323.781 188.008 322.128C188.008 320.474 186.667 319.134 185.014 319.134C183.36 319.134 182.02 320.474 182.02 322.128C182.02 323.781 183.36 325.121 185.014 325.121Z" fill="#444444"/>
<path d="M176.631 460.439C178.284 460.439 179.625 459.098 179.625 457.445C179.625 455.792 178.284 454.451 176.631 454.451C174.978 454.451 173.637 455.792 173.637 457.445C173.637 459.098 174.978 460.439 176.631 460.439Z" fill="#444444"/>
<path d="M23.9498 361.645C25.6032 361.645 26.9436 360.305 26.9436 358.651C26.9436 356.998 25.6032 355.658 23.9498 355.658C22.2964 355.658 20.9561 356.998 20.9561 358.651C20.9561 360.305 22.2964 361.645 23.9498 361.645Z" fill="#444444"/>
<path d="M61.0724 231.716C62.7258 231.716 64.0661 230.376 64.0661 228.723C64.0661 227.069 62.7258 225.729 61.0724 225.729C59.419 225.729 58.0786 227.069 58.0786 228.723C58.0786 230.376 59.419 231.716 61.0724 231.716Z" fill="#444444"/>
<path d="M76.0411 50.8938C77.6945 50.8938 79.0349 49.5534 79.0349 47.9C79.0349 46.2466 77.6945 44.9062 76.0411 44.9062C74.3877 44.9062 73.0474 46.2466 73.0474 47.9C73.0474 49.5534 74.3877 50.8938 76.0411 50.8938Z" fill="#444444"/>
<path d="M221.537 65.8625C223.191 65.8625 224.531 64.5222 224.531 62.8688C224.531 61.2153 223.191 59.875 221.537 59.875C219.884 59.875 218.543 61.2153 218.543 62.8688C218.543 64.5222 219.884 65.8625 221.537 65.8625Z" fill="#444444"/>
<path d="M346.077 28.1413C347.731 28.1413 349.071 26.801 349.071 25.1476C349.071 23.4942 347.731 22.1538 346.077 22.1538C344.424 22.1538 343.083 23.4942 343.083 25.1476C343.083 26.801 344.424 28.1413 346.077 28.1413Z" fill="#444444"/>
<path d="M141.903 159.268C143.557 159.268 144.897 157.927 144.897 156.274C144.897 154.62 143.557 153.28 141.903 153.28C140.25 153.28 138.91 154.62 138.91 156.274C138.91 157.927 140.25 159.268 141.903 159.268Z" fill="#444444"/>
<path d="M233.512 231.716C235.166 231.716 236.506 230.376 236.506 228.723C236.506 227.069 235.166 225.729 233.512 225.729C231.859 225.729 230.519 227.069 230.519 228.723C230.519 230.376 231.859 231.716 233.512 231.716Z" fill="#444444"/>
</g>
<defs>
<clipPath id="clip0">
<rect width="479" height="479" fill="white"/>
</clipPath>
</defs>
</svg>
