<svg width="269" height="271" viewBox="0 0 269 271" fill="none" xmlns="http://www.w3.org/2000/svg">
<circle cx="134.5" cy="135.5" r="134.5" fill="url(#paint0_linear_402_200)"/>
<path d="M163.665 151.075C162.11 150.87 160.507 150.762 158.856 150.762C157.206 150.762 155.603 150.87 154.048 151.075L142.995 65.6047C148.205 64.9192 153.501 64.568 158.856 64.568C164.212 64.568 169.508 64.9192 174.718 65.6047L163.665 151.075Z" fill="white"/>
<path d="M144.932 153.532C141.996 154.76 139.235 156.376 136.717 158.328L84.649 89.9832C93.0207 83.4939 102.27 78.0654 112.2 73.9119L144.932 153.532Z" fill="white"/>
<path d="M129.952 165.152C128.017 167.692 126.415 170.477 125.197 173.439L46.2633 140.422C50.3811 130.405 55.7628 121.076 62.1961 112.631L129.952 165.152Z" fill="white"/>
<path d="M122.762 182.633C122.559 184.202 122.31 185.819 122.31 187.484V193.282H37V187.484C37 182.081 37.3481 176.74 38.0277 171.484L122.762 182.633Z" fill="white"/>
<path d="M181.357 158.858C178.855 156.885 176.114 154.861 173.198 153.62L205.704 73.548C215.565 77.7456 224.751 83.2316 233.065 89.7895L181.357 158.858Z" fill="url(#paint1_linear_402_200)"/>
<defs>
<linearGradient id="paint0_linear_402_200" x1="99.5" y1="-62.5" x2="168.5" y2="257.5" gradientUnits="userSpaceOnUse">
<stop stop-color="#040307"/>
<stop offset="1" stop-color="#271A47"/>
</linearGradient>
<linearGradient id="paint1_linear_402_200" x1="177.988" y1="147.05" x2="222.632" y2="88.0155" gradientUnits="userSpaceOnUse">
<stop stop-color="#FAFF02"/>
<stop offset="1" stop-color="#FF00D6"/>
</linearGradient>
</defs>
</svg>
