<svg width="510" height="239" viewBox="0 0 510 239" fill="none" xmlns="http://www.w3.org/2000/svg">
<path d="M259.963 67.8641C258.475 67.7485 256.966 67.6892 255.436 67.6892C253.906 67.6892 252.396 67.7485 250.909 67.8641L245.666 0.378247C248.896 0.127321 252.155 0 255.436 0C258.717 0 261.976 0.127321 265.206 0.378247L259.963 67.8641Z" fill="url(#paint0_linear)"/>
<path d="M277.313 72.0143C274.581 70.8815 271.744 69.9558 268.818 69.2559L284.568 3.42463C291 4.96346 297.24 6.99917 303.241 9.48808L277.313 72.0143Z" fill="url(#paint1_linear)"/>
<path d="M242.054 69.2559C239.128 69.9558 236.291 70.8815 233.559 72.0143L207.631 9.48807C213.632 6.99917 219.872 4.96346 226.304 3.42463L242.054 69.2559Z" fill="url(#paint2_linear)"/>
<path d="M225.584 76.0862C223.025 77.6577 220.594 79.4277 218.315 81.3761L174.331 29.9252C179.283 25.6912 184.575 21.8357 190.162 18.4048L225.584 76.0862Z" fill="url(#paint3_linear)"/>
<path d="M292.557 81.3761C290.278 79.4277 287.847 77.6577 285.288 76.0862L320.71 18.4048C326.297 21.8357 331.589 25.6912 336.541 29.9252L292.557 81.3761Z" fill="url(#paint4_linear)"/>
<path d="M211.948 87.7432C209.999 90.0224 208.229 92.4527 206.658 95.0117L148.977 59.5902C152.407 54.0033 156.263 48.7115 160.497 43.7588L211.948 87.7432Z" fill="url(#paint5_linear)"/>
<path d="M304.214 95.0117C302.643 92.4527 300.873 90.0224 298.924 87.7432L350.375 43.7588C354.609 48.7115 358.464 54.0033 361.895 59.5903L304.214 95.0117Z" fill="url(#paint6_linear)"/>
<path d="M202.586 102.987C201.453 105.719 200.528 108.556 199.828 111.482L133.996 95.7317C135.535 89.2999 137.571 83.0606 140.06 77.0586L202.586 102.987Z" fill="url(#paint7_linear)"/>
<path d="M198.436 120.337C198.32 121.825 198.261 123.334 198.261 124.864V130.826H130.572V124.864C130.572 121.583 130.699 118.324 130.95 115.094L198.436 120.337Z" fill="url(#paint8_linear)"/>
<path d="M20.7388 185.171C22.083 189.779 24.5793 193.188 28.2278 195.396C31.8763 197.604 36.3889 198.709 41.7657 198.709C43.7819 198.709 45.7982 198.565 47.8145 198.276C49.9268 197.892 51.799 197.316 53.4312 196.548C55.0635 195.684 56.3596 194.628 57.3198 193.38C58.3759 192.036 58.904 190.451 58.904 188.627C58.904 185.267 57.2717 182.674 54.0073 180.85C50.7429 179.026 46.5183 177.586 41.3336 176.53L29.668 174.225C25.7315 173.457 21.987 172.401 18.4345 171.057C14.882 169.617 11.7616 167.84 9.07323 165.728C6.48088 163.52 4.36859 160.927 2.73637 157.951C1.20016 154.879 0.432059 151.278 0.432059 147.15C0.432059 141.965 1.63222 137.5 4.03255 133.756C6.52888 130.011 9.69731 126.939 13.5378 124.538C17.4744 122.042 21.843 120.218 26.6436 119.066C31.5403 117.914 36.3889 117.338 41.1896 117.338C45.1261 117.338 48.9666 117.722 52.7111 118.49C56.4556 119.258 59.9601 120.506 63.2246 122.234C66.489 123.866 69.3694 126.027 71.8657 128.715C74.4581 131.307 76.5224 134.476 78.0586 138.22L57.4638 145.709C56.1196 142.445 53.8633 139.949 50.6949 138.22C47.6224 136.492 43.7819 135.628 39.1733 135.628C34.7567 135.628 31.0602 136.444 28.0838 138.076C25.2034 139.613 23.7632 141.869 23.7632 144.845C23.7632 147.342 24.7233 149.454 26.6436 151.182C28.6599 152.814 31.3482 153.966 34.7087 154.639L47.6705 157.231C51.607 157.999 55.5915 158.959 59.6241 160.111C63.7526 161.263 67.4491 162.896 70.7136 165.008C74.074 167.024 76.8104 169.665 78.9227 172.929C81.131 176.097 82.2351 180.178 82.2351 185.171C82.2351 190.259 81.035 194.82 78.6346 198.853C76.3303 202.789 73.2579 206.102 69.4174 208.79C65.5769 211.478 61.2083 213.543 56.3116 214.983C51.511 216.327 46.6143 216.999 41.6216 216.999C31.0602 216.999 22.227 214.887 15.122 210.662C8.01709 206.438 2.9764 200.437 0 192.66L20.7388 185.171Z" fill="white"/>
<path d="M114.66 119.066V189.347C114.66 192.708 115.332 194.916 116.676 195.972C118.02 196.932 120.517 197.412 124.165 197.412H130.358V215.271H116.388C111.971 215.271 108.275 215.031 105.299 214.551C102.322 213.975 99.8738 212.966 97.9535 211.526C96.1293 210.086 94.7851 208.07 93.921 205.477C93.1529 202.789 92.7688 199.333 92.7688 195.108V119.066H114.66Z" fill="white"/>
<path d="M130.374 143.837H165.946V215.271H143.911V160.543H130.374V143.837Z" fill="white"/>
<path d="M179.546 215.271V143.837H198.701L201.437 153.342C202.205 151.998 203.261 150.654 204.606 149.31C206.046 147.966 207.678 146.766 209.502 145.709C211.422 144.557 213.535 143.645 215.839 142.973C218.239 142.205 220.784 141.821 223.472 141.821C228.081 141.821 231.921 142.493 234.994 143.837C238.066 145.085 240.514 147.006 242.339 149.598C244.259 152.094 245.603 155.215 246.371 158.959C247.139 162.704 247.523 166.976 247.523 171.777V215.271H225.632V177.25C225.632 174.753 225.536 172.401 225.344 170.193C225.248 167.888 224.816 165.92 224.048 164.288C223.376 162.56 222.272 161.215 220.736 160.255C219.296 159.295 217.279 158.815 214.687 158.815C210.078 158.815 206.718 160.495 204.606 163.856C202.493 167.12 201.437 172.017 201.437 178.546V215.271H179.546Z" fill="white"/>
<path d="M261.964 215.271V119.066H283.855V170.913L307.762 143.837H333.685L305.745 173.649L335.846 215.271H309.922L291.344 189.347L283.855 197.268V215.271H261.964Z" fill="white"/>
<path d="M338.246 143.837H373.818V215.271H351.783V160.543H338.246V143.837Z" fill="white"/>
<path d="M382.089 143.837H393.899V125.979H415.79V143.837H431.344V160.543H415.79V189.347C415.79 192.708 416.414 194.916 417.662 195.972C419.006 196.932 421.455 197.412 425.007 197.412H431.344V215.271H417.518C413.102 215.271 409.405 215.031 406.429 214.551C403.452 213.975 401.004 212.966 399.084 211.526C397.259 210.086 395.915 208.07 395.051 205.477C394.283 202.789 393.899 199.333 393.899 195.108V160.543H382.089V143.837Z" fill="white"/>
<path d="M434.787 143.837H458.262L472.232 188.483L485.914 143.837H509.389L482.025 215.271C480.297 219.783 478.569 223.528 476.841 226.504C475.208 229.481 473.24 231.833 470.936 233.561C468.728 235.385 466.039 236.634 462.871 237.306C459.702 238.074 455.814 238.458 451.205 238.458H444.148V222.616H448.469C450.773 222.616 452.645 222.568 454.086 222.472C455.526 222.376 456.678 222.136 457.542 221.752C458.502 221.368 459.222 220.744 459.702 219.879C460.278 219.111 460.854 218.055 461.431 216.711L462.151 214.839L434.787 143.837Z" fill="white"/>
<circle cx="362.569" cy="119.138" r="13.3218" fill="#FF00D6"/>
<defs>
<linearGradient id="paint0_linear" x1="265.37" y1="-9.04662e-06" x2="148.808" y2="126.632" gradientUnits="userSpaceOnUse">
<stop stop-color="#FF00D6"/>
<stop offset="1" stop-color="#FAFF02"/>
</linearGradient>
<linearGradient id="paint1_linear" x1="265.37" y1="-9.04662e-06" x2="148.808" y2="126.632" gradientUnits="userSpaceOnUse">
<stop stop-color="#FF00D6"/>
<stop offset="1" stop-color="#FAFF02"/>
</linearGradient>
<linearGradient id="paint2_linear" x1="265.37" y1="-9.04662e-06" x2="148.808" y2="126.632" gradientUnits="userSpaceOnUse">
<stop stop-color="#FF00D6"/>
<stop offset="1" stop-color="#FAFF02"/>
</linearGradient>
<linearGradient id="paint3_linear" x1="265.37" y1="-9.04662e-06" x2="148.808" y2="126.632" gradientUnits="userSpaceOnUse">
<stop stop-color="#FF00D6"/>
<stop offset="1" stop-color="#FAFF02"/>
</linearGradient>
<linearGradient id="paint4_linear" x1="265.37" y1="-9.04662e-06" x2="148.808" y2="126.632" gradientUnits="userSpaceOnUse">
<stop stop-color="#FF00D6"/>
<stop offset="1" stop-color="#FAFF02"/>
</linearGradient>
<linearGradient id="paint5_linear" x1="265.37" y1="-9.04662e-06" x2="148.808" y2="126.632" gradientUnits="userSpaceOnUse">
<stop stop-color="#FF00D6"/>
<stop offset="1" stop-color="#FAFF02"/>
</linearGradient>
<linearGradient id="paint6_linear" x1="265.37" y1="-9.04662e-06" x2="148.808" y2="126.632" gradientUnits="userSpaceOnUse">
<stop stop-color="#FF00D6"/>
<stop offset="1" stop-color="#FAFF02"/>
</linearGradient>
<linearGradient id="paint7_linear" x1="265.37" y1="-9.04662e-06" x2="148.808" y2="126.632" gradientUnits="userSpaceOnUse">
<stop stop-color="#FF00D6"/>
<stop offset="1" stop-color="#FAFF02"/>
</linearGradient>
<linearGradient id="paint8_linear" x1="265.37" y1="-9.04662e-06" x2="148.808" y2="126.632" gradientUnits="userSpaceOnUse">
<stop stop-color="#FF00D6"/>
<stop offset="1" stop-color="#FAFF02"/>
</linearGradient>
</defs>
</svg>
