<svg width="53" height="35" viewBox="0 0 53 35" fill="none" xmlns="http://www.w3.org/2000/svg">
<path d="M33.718 22.8691C33.3069 22.815 32.8829 22.7865 32.4467 22.7865C32.0105 22.7865 31.5865 22.815 31.1754 22.8691L28.2535 0.274059C29.6309 0.0928296 31.0309 0 32.4467 0C33.8625 0 35.2625 0.0928296 36.6399 0.274059L33.718 22.8691Z" fill="white"/>
<path d="M28.7657 23.5186C27.9895 23.8433 27.2597 24.2705 26.5939 24.7866L12.8291 6.71878C15.0423 5.00328 17.4874 3.56819 20.1125 2.47016L28.7657 23.5186Z" fill="white"/>
<path d="M24.8056 26.5904C24.2939 27.262 23.8704 27.9982 23.5485 28.7812L2.68144 20.0528C3.77002 17.4049 5.19273 14.9384 6.89345 12.7061L24.8056 26.5904Z" fill="white"/>
<path d="M22.9046 31.2118C22.851 31.6265 22.7853 32.0541 22.7853 32.4941V34.0269H0.232574V32.4941C0.232574 31.066 0.324601 29.6539 0.50427 28.2645L22.9046 31.2118Z" fill="white"/>
<path d="M38.3948 24.9266C37.7336 24.4051 37.0088 23.87 36.2379 23.5418L44.8314 2.3739C47.4383 3.48356 49.8666 4.93385 52.0644 6.66751L38.3948 24.9266Z" fill="url(#paint0_linear_119_34)"/>
<defs>
<linearGradient id="paint0_linear_119_34" x1="37.5043" y1="21.8049" x2="49.3064" y2="6.19853" gradientUnits="userSpaceOnUse">
<stop stop-color="#FAFF02"/>
<stop offset="1" stop-color="#FF00D6"/>
</linearGradient>
</defs>
</svg>
